# xmcd CD database file
#
# Track frame offsets:
#	150
#	20977
#	42117
#	62395
#	82792
#	104460
#	154350
#	172320
#	184072
#	213947
#	243870
#
# Disc length: 3519 seconds
#
# Revision: 3
# Processed by: cddbd v1.5PL3 Copyright (c) Steve Scherf et al.
# Submitted via: CDex 1.50
#
DISCID=8e0dbd0b
DTITLE=Zülfü Livanelli, London Symphony Orchestra - New Age Rhapsody
DYEAR=1998
DGENRE=Classical
TTITLE0=Movement No. 1
TTITLE1=Movement No. 2
TTITLE2=Movement No. 3
TTITLE3=Movement No. 4
TTITLE4=Movement No. 5
TTITLE5=Movement No. 6
TTITLE6=Movement No. 7
TTITLE7=Movement No. 8
TTITLE8=Movement No. 9
TTITLE9=Movement No. 10
TTITLE10=Movement No. 11
EXTD=YEAR: 1998
EXTT0=
EXTT1=
EXTT2=
EXTT3=
EXTT4=
EXTT5=
EXTT6=
EXTT7=
EXTT8=
EXTT9=
EXTT10=
PLAYORDER=
